<?xml version="1.0" encoding="UTF-8"?>
<svg width="25px" height="25px" viewBox="0 0 25 25" version="1.1" xmlns="http://www.w3.org/2000/svg" xmlns:xlink="http://www.w3.org/1999/xlink">
    <!-- Generator: Sketch 51.2 (57519) - http://www.bohemiancoding.com/sketch -->
    <title>Group 7</title>
    <desc>Created with Sketch.</desc>
    <defs>
        <polygon id="path-1" points="0.749467823 0.00441740185 23.7646 0.00441740185 23.7646 23.8146133 0.749467823 23.8146133"></polygon>
    </defs>
    <g id="middle-office" stroke="none" stroke-width="1" fill="none" fill-rule="evenodd">
        <g id="Mes-publications" transform="translate(-38.000000, -412.000000)">
            <g id="Group-7" transform="translate(38.000000, 412.000000)">
                <g id="Group-6">
                    <g id="Group-3-Copy-5" transform="translate(0.833333, 0.000000)">
                        <mask id="mask-2" fill="white">
                            <use xlink:href="#path-1"></use>
                        </mask>
                        <g id="Clip-2"></g>
                        <path d="M22.67836,12.01808 L23.6527933,9.45851333 C23.9410933,8.70314667 23.65796,7.83308 22.9800933,7.38978 L20.68816,5.89248 L19.97206,3.24921333 C19.7602267,2.46801333 18.9903933,1.92758 18.2122933,1.97098 L15.4780933,2.10738 L13.3452933,0.38688 C12.7139267,-0.123586667 11.7994267,-0.122553333 11.16806,0.38688 L9.03629333,2.10634667 L6.30106,1.96788 C5.49299333,1.92654667 4.75312667,2.46594667 4.54129333,3.24611333 L3.82622667,5.88938 L1.53326,7.38668 C0.856426667,7.82894667 0.573293333,8.69901333 0.861593333,9.45541333 L1.83706,12.01498 L1.47849333,12.9522133 C1.32556,13.3531467 1.52706,13.80058 1.92592667,13.9535133 C2.32789333,14.1054133 2.77429333,13.9049467 2.92722667,13.5050467 L3.39016,12.2919133 C3.45836,12.1131467 3.45836,11.9168133 3.39016,11.73908 L2.31032667,8.90464667 C2.27829333,8.82301333 2.30826,8.73208 2.38059333,8.68454667 L4.92052667,7.02604667 C5.07966,6.92168 5.19539333,6.76358 5.24499333,6.57964667 L6.03756,3.65118 C6.06029333,3.56954667 6.13262667,3.51994667 6.22356,3.51581333 L9.25329333,3.66978 C9.44652667,3.67494667 9.63149333,3.61811333 9.78029333,3.49824667 L12.14146,1.59278 C12.20966,1.53698 12.3036933,1.53801333 12.3718933,1.59278 L14.7340933,3.49824667 C14.88186,3.61811333 15.0668267,3.67701333 15.2590267,3.66978 L18.28876,3.51891333 C18.38486,3.51994667 18.4540933,3.57264667 18.4757933,3.65428 L19.26836,6.58274667 C19.3189933,6.76564667 19.4336933,6.92478 19.5928267,7.02914667 L22.13276,8.68764667 C22.2061267,8.73518 22.23506,8.82508 22.2050933,8.90671333 L21.12526,11.74218 C21.05706,11.9199133 21.05706,12.1162467 21.12526,12.29398 L22.2050933,15.1284133 C22.23506,15.2090133 22.2050933,15.3020133 22.1337933,15.3485133 L19.59386,17.0018467 C19.4347267,17.10518 19.3189933,17.2643133 19.2693933,17.4472133 L18.47166,20.37878 C18.4489267,20.46248 18.3858933,20.5172467 18.28566,20.5141467 L15.2548933,20.36328 C15.0668267,20.35708 14.87876,20.4139133 14.7309933,20.53378 L12.3687933,22.4361467 C12.0350267,22.7048133 11.9823267,23.1925467 12.2509933,23.52528 C12.4039267,23.7154133 12.62816,23.8146133 12.8554933,23.8146133 C13.0259933,23.8146133 13.1975267,23.7588133 13.3401267,23.64308 L15.4729267,21.92568 L18.20816,22.06208 C19.0286267,22.1003133 19.7571267,21.5650467 19.9679267,20.7838467 L20.6871267,18.1395467 L22.9800933,16.64638 C23.65796,16.20308 23.9410933,15.3330133 23.6527933,14.5766133 L22.67836,12.01808 Z" id="Fill-1" fill="#FFFFFF" mask="url(#mask-2)"></path>
                    </g>
                    <path d="M8.69038314,22.8667029 C8.38968314,23.0754362 8.01354981,23.1529362 7.65498314,23.0764696 C7.29641647,23.0000029 6.98228314,22.7778362 6.77871647,22.4461362 L6.43151647,21.9129362 L9.19154981,21.0501029 C9.44678314,21.7000696 9.26801647,22.4523362 8.69038314,22.8667029 Z M15.2034831,17.5450362 L2.48004981,21.5254362 L2.06568314,20.8723696 L10.5121498,10.1536029 L13.1368165,14.2879696 L15.2034831,17.5450362 Z M16.0642498,18.8997362 L16.0880165,18.9369362 C16.2357831,19.1694362 16.4858498,19.2965362 16.7421165,19.2965362 C16.8847165,19.2965362 17.0283498,19.2583029 17.1575165,19.1766696 C17.5181498,18.9472696 17.6256165,18.4678029 17.3962165,18.1071696 L17.0552165,17.5688029 C17.0541831,17.5677696 17.0541831,17.5677696 17.0541831,17.5677696 L15.5692831,15.2272696 L10.8924165,7.86063624 C10.6630165,7.49793624 10.1825165,7.39150291 9.82291647,7.62090291 C9.46228314,7.85030291 9.35481647,8.32976957 9.58421647,8.69040291 L9.63174981,8.76583624 L1.09744981,19.5962029 C0.86598314,19.4877029 0.591116473,19.4835696 0.359649806,19.6303029 C-0.00201686018,19.8597029 -0.108450194,20.3391696 0.120949806,20.6998029 L0.461949806,21.2381696 C0.461949806,21.2392029 0.461949806,21.2392029 0.46298314,21.2392029 L1.19251647,22.3903362 L1.83111647,23.3957696 C1.97888314,23.6282696 2.22998314,23.7553696 2.48624981,23.7553696 C2.62884981,23.7553696 2.77248314,23.7171362 2.90061647,23.6355029 C3.15481647,23.4732696 3.27468314,23.1891029 3.24884981,22.9090696 L4.89598314,22.3934362 L5.46741647,23.2728029 C5.87971647,23.9475696 6.55964981,24.4291029 7.33464981,24.5923696 C7.52891647,24.6337029 7.72731647,24.6543696 7.92468314,24.6543696 C8.51058314,24.6543696 9.09131647,24.4756029 9.58524981,24.1325362 C10.7198498,23.3162029 11.1373165,21.8654029 10.6878165,20.5820029 L16.0642498,18.8997362 Z" id="Fill-4-Copy-3" fill="#FFFFFF"></path>
                </g>
            </g>
        </g>
    </g>
</svg>