<?xml version="1.0" encoding="UTF-8"?>
<svg width="29px" height="28px" viewBox="0 0 29 28" version="1.1" xmlns="http://www.w3.org/2000/svg" xmlns:xlink="http://www.w3.org/1999/xlink">
    <!-- Generator: Sketch 51.2 (57519) - http://www.bohemiancoding.com/sketch -->
    <title>Group 11 Copy 3</title>
    <desc>Created with Sketch.</desc>
    <defs></defs>
    <g id="middle-office" stroke="none" stroke-width="1" fill="none" fill-rule="evenodd" stroke-linecap="round" stroke-linejoin="round">
        <g id="Fiche-évènement" transform="translate(-1384.000000, -276.000000)" stroke="#80848A" stroke-width="1.8">
            <g id="Group-11-Copy-3" transform="translate(1385.000000, 277.000000)">
                <path d="M24.5442708,20.3125 L12.6953125,20.3125 L5.92447917,25.1875 L5.92447917,20.3125 L2.5390625,20.3125 C1.6042055,20.3125 0.846354167,19.5849627 0.846354167,18.6875 L0.846354167,2.4375 C0.846354167,1.54003728 1.6042055,0.8125 2.5390625,0.8125 L24.5442708,0.8125 C25.4791278,0.8125 26.2369792,1.54003728 26.2369792,2.4375 L26.2369792,18.6875 C26.2369792,19.5849627 25.4791278,20.3125 24.5442708,20.3125 Z" id="Shape"></path>
                <path d="M8.46354167,10.15625 C8.22982742,10.15625 8.04036458,10.3381343 8.04036458,10.5625 C8.04036458,10.7868657 8.22982742,10.96875 8.46354167,10.96875 C8.69725592,10.96875 8.88671875,10.7868657 8.88671875,10.5625 C8.88671875,10.3381343 8.69725592,10.15625 8.46354167,10.15625" id="Shape"></path>
                <path d="M13.5416667,10.15625 C13.3079524,10.15625 13.1184896,10.3381343 13.1184896,10.5625 C13.1184896,10.7868657 13.3079524,10.96875 13.5416667,10.96875 C13.7753809,10.96875 13.9648438,10.7868657 13.9648438,10.5625 C13.9648438,10.3381343 13.7753809,10.15625 13.5416667,10.15625" id="Shape"></path>
                <path d="M18.6197917,10.15625 C18.3860774,10.15625 18.1966146,10.3381343 18.1966146,10.5625 C18.1966146,10.7868657 18.3860774,10.96875 18.6197917,10.96875 C18.8535059,10.96875 19.0429688,10.7868657 19.0429688,10.5625 C19.0429688,10.3381343 18.8535059,10.15625 18.6197917,10.15625" id="Shape"></path>
            </g>
        </g>
    </g>
</svg>