<?xml version="1.0" encoding="UTF-8"?>
<svg width="28px" height="22px" viewBox="0 0 28 22" version="1.1" xmlns="http://www.w3.org/2000/svg" xmlns:xlink="http://www.w3.org/1999/xlink">
    <!-- Generator: Sketch 51.2 (57519) - http://www.bohemiancoding.com/sketch -->
    <title>Shape Copy 22</title>
    <desc>Created with Sketch.</desc>
    <defs></defs>
    <g id="middle-office" stroke="none" stroke-width="1" fill="none" fill-rule="evenodd" stroke-linecap="round" stroke-linejoin="round">
        <g id="Fiche-évènement" transform="translate(-1628.000000, -279.000000)" stroke="#80848A" stroke-width="1.8">
            <path d="M1639.0166,281.631151 C1639.01572,280.959746 1638.56795,280.357253 1637.8879,280.112467 C1637.20786,279.867681 1636.43415,280.030489 1635.93763,280.522853 L1629.47062,286.961431 C1628.84313,287.586859 1628.84313,288.550421 1629.47062,289.175849 L1635.93408,295.614426 C1636.4306,296.10679 1637.20431,296.269599 1637.88435,296.024813 C1638.56439,295.780026 1639.01217,295.177533 1639.01305,294.506129 L1639.01305,291.334743 L1646.11836,291.334743 C1651.02355,291.334743 1655,294.990453 1655,299.5 L1655,292.967794 C1655,288.458247 1651.02355,284.802537 1646.11836,284.802537 L1639.01305,284.802537 L1639.0166,281.631151 Z" id="Shape-Copy-22" transform="translate(1642.000000, 289.750000) scale(-1, 1) translate(-1642.000000, -289.750000) "></path>
        </g>
    </g>
</svg>