<?xml version="1.0" encoding="UTF-8"?>
<svg width="29px" height="21px" viewBox="0 0 29 21" version="1.1" xmlns="http://www.w3.org/2000/svg" xmlns:xlink="http://www.w3.org/1999/xlink">
    <!-- Generator: Sketch 51.2 (57519) - http://www.bohemiancoding.com/sketch -->
    <title>Group 5</title>
    <desc>Created with Sketch.</desc>
    <defs></defs>
    <g id="middle-office" stroke="none" stroke-width="1" fill="none" fill-rule="evenodd" stroke-linecap="round" stroke-linejoin="round">
        <g id="Mes-publications" transform="translate(-35.000000, -270.000000)" stroke="#FFFFFF">
            <g id="Group-5" transform="translate(36.000000, 271.000000)">
                <circle id="Oval" stroke-width="1.1" cx="13.4117647" cy="13.4117647" r="1.67647059"></circle>
                <path d="M14.5964706,12.2259412 L20.1299412,6.69470588" id="Shape" stroke-width="1.1"></path>
                <path d="M2.79411765,13.9705882 L5.02941176,13.9705882" id="Shape" stroke-width="1.1"></path>
                <path d="M24.0294118,13.9705882 L21.7941176,13.9705882" id="Shape" stroke-width="1.1"></path>
                <path d="M23.2202353,9.34911765 L21.1559412,10.2041176" id="Shape" stroke-width="1.1"></path>
                <path d="M17.4744118,3.60217647 L16.6194118,5.66758824" id="Shape" stroke-width="1.1"></path>
                <path d="M13.4117647,2.79411765 L13.4117647,5.02941176" id="Shape" stroke-width="1.1"></path>
                <path d="M9.34911765,3.60217647 L10.2041176,5.66758824" id="Shape" stroke-width="1.1"></path>
                <path d="M5.90452941,5.90341176 L7.48264706,7.48488235" id="Shape" stroke-width="1.1"></path>
                <path d="M3.60329412,9.34911765 L5.66647059,10.2041176" id="Shape" stroke-width="1.1"></path>
                <path d="M13.4117647,0.558823529 C6.3132813,0.558823529 0.558823529,6.3132813 0.558823529,13.4117647 L0.558823529,17.3235294 C0.558823529,17.9407888 1.05921116,18.4411765 1.67647059,18.4411765 L25.1470588,18.4411765 C25.7643182,18.4411765 26.2647059,17.9407888 26.2647059,17.3235294 L26.2647059,13.4117647 C26.2647059,6.3132813 20.5102481,0.558823529 13.4117647,0.558823529 Z" id="Shape" stroke-width="1.5"></path>
            </g>
        </g>
    </g>
</svg>